<svg width="189" height="176" viewBox="0 0 189 176" fill="none" xmlns="http://www.w3.org/2000/svg">
<rect x="-29" y="87" width="65" height="2" fill="#273444"/>
<path d="M57.25 27.07C56.55 27.07 55.9153 26.93 55.346 26.65C54.7767 26.37 54.2867 25.992 53.876 25.516C53.4653 25.0307 53.148 24.4893 52.924 23.892C52.7 23.2853 52.588 22.6647 52.588 22.03C52.588 21.3673 52.7047 20.7373 52.938 20.14C53.1713 19.5333 53.498 18.9967 53.918 18.53C54.3473 18.054 54.8467 17.6807 55.416 17.41C55.9853 17.13 56.6013 16.99 57.264 16.99C57.964 16.99 58.5987 17.1347 59.168 17.424C59.7373 17.7133 60.2227 18.1007 60.624 18.586C61.0347 19.0713 61.352 19.6127 61.576 20.21C61.8 20.8073 61.912 21.4187 61.912 22.044C61.912 22.7067 61.7953 23.3413 61.562 23.948C61.3287 24.5453 61.002 25.082 60.582 25.558C60.162 26.0247 59.6673 26.3933 59.098 26.664C58.5287 26.9347 57.9127 27.07 57.25 27.07ZM53.568 22.03C53.568 22.5713 53.6567 23.094 53.834 23.598C54.0113 24.0927 54.2633 24.536 54.59 24.928C54.9167 25.3107 55.304 25.6187 55.752 25.852C56.2093 26.076 56.7087 26.188 57.25 26.188C57.8193 26.188 58.328 26.0713 58.776 25.838C59.2333 25.5953 59.6207 25.278 59.938 24.886C60.2647 24.4847 60.512 24.0367 60.68 23.542C60.848 23.0473 60.932 22.5433 60.932 22.03C60.932 21.4887 60.8433 20.9707 60.666 20.476C60.4887 19.9813 60.232 19.538 59.896 19.146C59.5693 18.754 59.182 18.446 58.734 18.222C58.286 17.998 57.7913 17.886 57.25 17.886C56.69 17.886 56.1813 18.0027 55.724 18.236C55.276 18.4693 54.8887 18.7867 54.562 19.188C54.2447 19.58 53.9973 20.0233 53.82 20.518C53.652 21.0127 53.568 21.5167 53.568 22.03ZM67.8057 27.07C67.0217 27.07 66.359 26.93 65.8177 26.65C65.2763 26.37 64.847 25.9967 64.5297 25.53C64.2123 25.054 63.979 24.5173 63.8297 23.92C63.6897 23.3227 63.6197 22.7067 63.6197 22.072V17.06H64.5857V22.072C64.5857 22.5853 64.637 23.0893 64.7397 23.584C64.8517 24.0787 65.029 24.522 65.2717 24.914C65.5143 25.306 65.841 25.6187 66.2517 25.852C66.6623 26.076 67.1757 26.188 67.7917 26.188C68.4263 26.188 68.949 26.0713 69.3597 25.838C69.7797 25.5953 70.1063 25.278 70.3397 24.886C70.5823 24.494 70.755 24.0553 70.8577 23.57C70.9603 23.0753 71.0117 22.576 71.0117 22.072V17.06H71.9917V22.072C71.9917 22.7347 71.917 23.3693 71.7677 23.976C71.6183 24.5827 71.3757 25.1147 71.0397 25.572C70.713 26.0293 70.2837 26.3933 69.7517 26.664C69.2197 26.9347 68.571 27.07 67.8057 27.07ZM81.384 17.928H77.842V27H76.862V17.928H73.32V17.06H81.384V17.928ZM86.919 27.07C86.135 27.07 85.4723 26.93 84.931 26.65C84.3896 26.37 83.9603 25.9967 83.643 25.53C83.3256 25.054 83.0923 24.5173 82.943 23.92C82.803 23.3227 82.733 22.7067 82.733 22.072V17.06H83.699V22.072C83.699 22.5853 83.7503 23.0893 83.853 23.584C83.965 24.0787 84.1423 24.522 84.385 24.914C84.6276 25.306 84.9543 25.6187 85.365 25.852C85.7756 26.076 86.289 26.188 86.905 26.188C87.5396 26.188 88.0623 26.0713 88.473 25.838C88.893 25.5953 89.2196 25.278 89.453 24.886C89.6956 24.494 89.8683 24.0553 89.971 23.57C90.0736 23.0753 90.125 22.576 90.125 22.072V17.06H91.105V22.072C91.105 22.7347 91.0303 23.3693 90.881 23.976C90.7316 24.5827 90.489 25.1147 90.153 25.572C89.8263 26.0293 89.397 26.3933 88.865 26.664C88.333 26.9347 87.6843 27.07 86.919 27.07ZM100.917 24.438C100.917 24.9327 100.791 25.376 100.539 25.768C100.287 26.1507 99.9466 26.454 99.5173 26.678C99.0973 26.8927 98.6353 27 98.1313 27H93.4413V17.06H98.2293C98.696 17.06 99.0973 17.186 99.4333 17.438C99.7786 17.6807 100.04 17.998 100.217 18.39C100.404 18.7727 100.497 19.174 100.497 19.594C100.497 20.0887 100.371 20.546 100.119 20.966C99.8673 21.386 99.5173 21.6987 99.0693 21.904C99.6386 22.072 100.087 22.3847 100.413 22.842C100.749 23.2993 100.917 23.8313 100.917 24.438ZM99.9373 24.27C99.9373 23.934 99.8626 23.626 99.7133 23.346C99.564 23.0567 99.3586 22.8233 99.0973 22.646C98.8453 22.4687 98.556 22.38 98.2293 22.38H94.4213V26.146H98.1313C98.4673 26.146 98.7706 26.0573 99.0413 25.88C99.312 25.7027 99.5266 25.474 99.6853 25.194C99.8533 24.9047 99.9373 24.5967 99.9373 24.27ZM94.4213 17.914V21.582H97.8373C98.164 21.582 98.4533 21.498 98.7053 21.33C98.9573 21.1527 99.158 20.924 99.3073 20.644C99.4566 20.364 99.5313 20.0653 99.5313 19.748C99.5313 19.412 99.4613 19.1087 99.3213 18.838C99.1813 18.558 98.99 18.334 98.7473 18.166C98.5046 17.998 98.2293 17.914 97.9213 17.914H94.4213ZM102.766 27V17.06H106.966C107.395 17.06 107.787 17.1487 108.142 17.326C108.496 17.5033 108.804 17.746 109.066 18.054C109.336 18.3527 109.542 18.6887 109.682 19.062C109.831 19.426 109.906 19.7993 109.906 20.182C109.906 20.658 109.812 21.106 109.626 21.526C109.448 21.946 109.192 22.3007 108.856 22.59C108.529 22.8793 108.142 23.0707 107.694 23.164L110.13 27H109.024L106.686 23.332H103.746V27H102.766ZM103.746 22.464H106.994C107.386 22.464 107.726 22.3567 108.016 22.142C108.305 21.9273 108.529 21.6473 108.688 21.302C108.846 20.9473 108.926 20.574 108.926 20.182C108.926 19.7807 108.832 19.412 108.646 19.076C108.468 18.7307 108.226 18.4553 107.918 18.25C107.619 18.0353 107.283 17.928 106.91 17.928H103.746V22.464ZM115.916 27.07C115.216 27.07 114.581 26.93 114.012 26.65C113.443 26.37 112.953 25.992 112.542 25.516C112.131 25.0307 111.814 24.4893 111.59 23.892C111.366 23.2853 111.254 22.6647 111.254 22.03C111.254 21.3673 111.371 20.7373 111.604 20.14C111.837 19.5333 112.164 18.9967 112.584 18.53C113.013 18.054 113.513 17.6807 114.082 17.41C114.651 17.13 115.267 16.99 115.93 16.99C116.63 16.99 117.265 17.1347 117.834 17.424C118.403 17.7133 118.889 18.1007 119.29 18.586C119.701 19.0713 120.018 19.6127 120.242 20.21C120.466 20.8073 120.578 21.4187 120.578 22.044C120.578 22.7067 120.461 23.3413 120.228 23.948C119.995 24.5453 119.668 25.082 119.248 25.558C118.828 26.0247 118.333 26.3933 117.764 26.664C117.195 26.9347 116.579 27.07 115.916 27.07ZM112.234 22.03C112.234 22.5713 112.323 23.094 112.5 23.598C112.677 24.0927 112.929 24.536 113.256 24.928C113.583 25.3107 113.97 25.6187 114.418 25.852C114.875 26.076 115.375 26.188 115.916 26.188C116.485 26.188 116.994 26.0713 117.442 25.838C117.899 25.5953 118.287 25.278 118.604 24.886C118.931 24.4847 119.178 24.0367 119.346 23.542C119.514 23.0473 119.598 22.5433 119.598 22.03C119.598 21.4887 119.509 20.9707 119.332 20.476C119.155 19.9813 118.898 19.538 118.562 19.146C118.235 18.754 117.848 18.446 117.4 18.222C116.952 17.998 116.457 17.886 115.916 17.886C115.356 17.886 114.847 18.0027 114.39 18.236C113.942 18.4693 113.555 18.7867 113.228 19.188C112.911 19.58 112.663 20.0233 112.486 20.518C112.318 21.0127 112.234 21.5167 112.234 22.03ZM121.871 27V25.628H122.697V27H121.871ZM124.229 27C124.229 26.6827 124.257 26.3653 124.313 26.048C124.369 25.7213 124.477 25.3993 124.635 25.082C124.794 24.7647 125.027 24.4613 125.335 24.172C125.643 23.8733 126.049 23.5933 126.553 23.332C126.824 23.192 127.104 23.0567 127.393 22.926C127.683 22.786 127.953 22.6367 128.205 22.478C128.467 22.31 128.672 22.1233 128.821 21.918C128.98 21.7033 129.059 21.4513 129.059 21.162C129.059 20.9287 128.989 20.7 128.849 20.476C128.719 20.252 128.513 20.07 128.233 19.93C127.963 19.79 127.622 19.72 127.211 19.72C126.913 19.72 126.642 19.762 126.399 19.846C126.157 19.93 125.942 20.0373 125.755 20.168C125.569 20.2893 125.41 20.4153 125.279 20.546C125.149 20.6673 125.041 20.77 124.957 20.854L124.355 20.196C124.402 20.14 124.505 20.042 124.663 19.902C124.831 19.7527 125.041 19.5987 125.293 19.44C125.555 19.2813 125.858 19.146 126.203 19.034C126.558 18.922 126.945 18.866 127.365 18.866C127.935 18.866 128.42 18.9687 128.821 19.174C129.232 19.37 129.545 19.636 129.759 19.972C129.974 20.308 130.081 20.672 130.081 21.064C130.081 21.4467 129.997 21.778 129.829 22.058C129.671 22.3287 129.461 22.5667 129.199 22.772C128.947 22.968 128.681 23.1407 128.401 23.29C128.131 23.43 127.883 23.5513 127.659 23.654C127.221 23.8593 126.852 24.0647 126.553 24.27C126.255 24.4753 126.017 24.6853 125.839 24.9C125.662 25.1053 125.522 25.3107 125.419 25.516C125.326 25.712 125.261 25.9173 125.223 26.132H130.235V27H124.229ZM138.712 22.898C138.712 23.7193 138.558 24.452 138.25 25.096C137.951 25.7307 137.536 26.23 137.004 26.594C136.472 26.958 135.87 27.14 135.198 27.14C134.526 27.14 133.924 26.958 133.392 26.594C132.869 26.23 132.454 25.7307 132.146 25.096C131.838 24.452 131.684 23.7193 131.684 22.898C131.684 22.0767 131.838 21.3487 132.146 20.714C132.454 20.07 132.869 19.566 133.392 19.202C133.924 18.8287 134.526 18.642 135.198 18.642C135.87 18.642 136.472 18.8287 137.004 19.202C137.536 19.566 137.951 20.07 138.25 20.714C138.558 21.3487 138.712 22.0767 138.712 22.898ZM137.746 22.898C137.746 22.2353 137.639 21.652 137.424 21.148C137.209 20.644 136.911 20.252 136.528 19.972C136.145 19.6827 135.702 19.538 135.198 19.538C134.694 19.538 134.251 19.6827 133.868 19.972C133.485 20.252 133.182 20.644 132.958 21.148C132.743 21.652 132.636 22.2353 132.636 22.898C132.636 23.5607 132.743 24.144 132.958 24.648C133.182 25.152 133.485 25.544 133.868 25.824C134.251 26.104 134.694 26.244 135.198 26.244C135.702 26.244 136.145 26.104 136.528 25.824C136.911 25.5347 137.209 25.1427 137.424 24.648C137.639 24.144 137.746 23.5607 137.746 22.898Z" fill="#3C4858"/>
<path d="M188 148V175H36V1H188V46" stroke="#3C4858" stroke-width="0.5"/>
</svg>
